#!OML:ASF H:\Terrain\Walking\May29\JustinRory\rory.ASF
:FULLY-SPECIFIED
:DEGREES
391
root 10.3885 17.4821 12.116 -21.1138 61.3496 -29.413
lowerback 12.8774 3.68177 -4.42033
upperback 5.89689 4.50598 -1.68824
thorax -1.19462 2.27499 0.0998236
lowerneck 1.46028 -21.0835 -15.7954
upperneck 10.5318 -32.544 27.0176
head 10.546 -15.3432 6.98636
rclavicle 2.46493e-014 -9.54166e-015
rhumerus -20.2731 20.7531 -47.2977
rradius 16.8637
rwrist 11.9965
rhand 22.1816 24.9037
rfingers 7.12502
rthumb 46.5617 2.04675
lclavicle 2.46493e-014 -9.54166e-015
lhumerus -52.8138 8.95892 51.1643
lradius 50.5133
lwrist -0.435871
lhand -9.70773 12.8675
lfingers 7.12502
lthumb 16.2651 42.2053
rfemur -17.6662 -18.4828 21.2489
rtibia 44.8303
rfoot -16.7623 -11.6025
rtoes -14.2306
lfemur -37.7291 5.21454 -19.8993
ltibia 52.7138
lfoot -21.5016 0.978569
ltoes 22.6107
392
root 10.3775 17.452 12.2075 -22.28 60.9746 -30.4553
lowerback 13.3046 3.62753 -3.89433
upperback 5.96315 4.47799 -1.67458
thorax -1.31801 2.27217 -0.198818
lowerneck 1.2941 -21.0691 -15.9729
upperneck 10.3557 -32.5821 27.4255
head 10.6505 -15.3454 7.10252
rclavicle 2.8625e-014 9.54166e-015
rhumerus -19.1601 17.4215 -46.0922
rradius 16.154
rwrist 15.195
rhand 25.9988 25.0191
rfingers 7.12502
rthumb 50.0766 3.83667
lclavicle 2.8625e-014 9.54166e-015
lhumerus -53.0403 9.78545 49.2637
lradius 49.7853
lwrist -0.315674
lhand -8.91181 13.4564
lfingers 7.12502
lthumb 17.0313 42.7298
rfemur -18.2076 -19.786 21.5213
rtibia 46.9279
rfoot -16.0595 -8.99511
rtoes -18.6227
lfemur -36.9958 4.32056 -19.0033
ltibia 52.4967
lfoot -23.1355 5.83191
ltoes 10.9174
393
root 10.3563 17.4432 12.2959 -22.1699 60.826 -30.1058
lowerback 13.7528 3.63551 -4.20337
upperback 6.06836 4.43339 -1.81016
thorax -1.45483 2.25086 -0.187262
lowerneck 1.08607 -20.9977 -16.0203
upperneck 9.82428 -32.4649 27.9407
head 10.5984 -15.2893 7.27527
rclavicle 1.11319e-014 -3.81667e-014
rhumerus -17.6685 11.715 -44.5789
rradius 15.2037
rwrist 20.4957
rhand 29.2911 25.2023
rfingers 7.12502
rthumb 53.0685 5.75336
lclavicle 1.11319e-014 -3.81667e-014
lhumerus -53.2525 10.6535 47.3991
lradius 49.257
lwrist -0.237648
lhand -7.90236 13.95
lfingers 7.12502
lthumb 18.0028 43.1368
rfemur -19.0409 -20.6643 20.959
rtibia 49.341
rfoot -14.9105 -6.13501
rtoes -21.5373
lfemur -36.7572 2.94415 -18.6418
ltibia 53.049
lfoot -23.085 4.60783
ltoes 18.0207
394
root 10.3261 17.4192 12.3864 -19.864 61.0802 -27.5822
lowerback 14.0491 3.72242 -5.7548
upperback 6.08099 4.32943 -2.26054
thorax -1.65876 2.18757 0.199609
lowerneck 0.7539 -20.8566 -15.7595
upperneck 9.15915 -32.1581 28.3024
head 10.3824 -15.1417 7.4046
rclavicle -6.36111e-014 9.54166e-015
rhumerus -16.3846 6.64346 -43.4949
rradius 14.6029
rwrist 24.5946
rhand 32.0533 24.6577
rfingers 7.12502
rthumb 55.5429 6.91909
lclavicle -6.36111e-014 9.54166e-015
lhumerus -53.5222 11.0196 45.7675
lradius 49.1254
lwrist 0.120247
lhand -7.77569 15.1133
lfingers 7.12502
lthumb 18.1247 44.2888
rfemur -20.535 -21.1615 19.1932
rtibia 52.0221
rfoot -13.3013 -3.26205
rtoes -24.4291
lfemur -37.2195 1.06568 -19.3639
ltibia 53.8939
lfoot -22.9629 5.33533
ltoes 20.6404
395
root 10.2913 17.3717 12.4798 -18.6621 61.2467 -26.0715
lowerback 14.6738 3.80978 -6.63447
upperback 6.12156 4.27934 -2.60061
thorax -1.97149 2.16484 0.298973
lowerneck 0.512424 -20.8288 -15.6182
upperneck 8.4768 -32.039 28.7537
head 10.2345 -15.0906 7.53131
rclavicle -3.97569e-014 3.49861e-014
rhumerus -15.5291 2.90523 -42.8388
rradius 14.3659
rwrist 26.5336
rhand 34.0874 23.2079
rfingers 7.12502
rthumb 57.3394 6.90813
lclavicle -3.97569e-014 3.49861e-014
lhumerus -53.5831 11.7492 44.011
lradius 49.0988
lwrist -0.254813
lhand -9.03763 16.3167
lfingers 7.12502
lthumb 16.9102 45.6005
rfemur -21.8601 -21.5346 17.7625
rtibia 54.8396
rfoot -11.8286 -0.0763463
rtoes -25.9239
lfemur -37.6339 -0.468359 -19.592
ltibia 54.6664
lfoot -22.735 7.48391
ltoes 14.8704
396
root 10.2572 17.325 12.5759 -18.4293 61.4083 -25.5437
lowerback 15.4167 3.83056 -7.01552
upperback 6.1951 4.19376 -2.7658
thorax -2.29111 2.13006 0.305433
lowerneck 0.352148 -20.8608 -15.5915
upperneck 7.80605 -32.0021 29.1521
head 10.1057 -15.0909 7.63772
rclavicle -9.54166e-015 4.45278e-014
rhumerus -14.6455 -2.63424 -42.0999
rradius 13.9593
rwrist 30.0003
rhand 34.9938 21.3008
rfingers 7.12502
rthumb 58.1317 5.6982
lclavicle -9.54166e-015 4.45278e-014
lhumerus -53.4572 12.6629 42.2503
lradius 48.938
lwrist -0.835726
lhand -10.1742 16.8766
lfingers 7.12502
lthumb 15.8159 46.2505
rfemur -22.9737 -21.8206 16.6547
rtibia 57.4594
rfoot -10.0797 3.43381
rtoes -24.3202
lfemur -37.8905 -1.86667 -19.3011
ltibia 55.3029
lfoot -22.3359 8.95889
ltoes 7.71609
397
root 10.2273 17.2987 12.6639 -16.7554 61.8716 -23.6182
lowerback 15.8621 3.86732 -8.02265
upperback 6.28393 4.06109 -3.08121
thorax -2.45407 2.06504 0.528395
lowerneck 0.139909 -20.8774 -15.4354
upperneck 7.06326 -31.8514 29.2716
head 9.84568 -15.0484 7.66451
rclavicle -7.95139e-014 7.31528e-014
rhumerus -13.8501 -8.3878 -41.5516
rradius 13.7095
rwrist 33.4475
rhand 34.8296 19.157
rfingers 7.12502
rthumb 57.9886 3.42535
lclavicle -7.95139e-014 7.31528e-014
lhumerus -53.0013 13.2404 40.8676
lradius 48.6507
lwrist -0.99823
lhand -10.6087 17.9811
lfingers 7.12502
lthumb 15.3974 47.3877
rfemur -24.1493 -22.1125 14.7035
rtibia 59.5738
rfoot -8.04294 6.96854
rtoes -22.1749
lfemur -38.1426 -3.1964 -19.8411
ltibia 55.8535
lfoot -22.4184 9.34635
ltoes 7.09896
398
root 10.2 17.2832 12.7464 -13.8962 62.4423 -20.5672
lowerback 15.9782 3.96924 -9.37091
upperback 6.43513 4.00165 -3.58223
thorax -2.37872 2.03008 0.750546
lowerneck 0.000819954 -20.9169 -15.2644
upperneck 6.07405 -31.7037 29.539
head 9.52377 -15.0277 7.74295
rclavicle -4.45278e-014 9.54166e-015
rhumerus -13.2019 -12.3573 -41.5517
rradius 13.7799
rwrist 34.7074
rhand 34.0912 14.7635
rfingers 7.12502
rthumb 57.3427 -1.53346
lclavicle -4.45278e-014 9.54166e-015
lhumerus -52.0458 13.9184 39.6101
lradius 48.1133
lwrist -1.37387
lhand -10.724 19.3535
lfingers 7.12502
lthumb 15.2864 48.7686
rfemur -25.2221 -22.647 12.272
rtibia 60.8867
rfoot -6.05545 10.3167
rtoes -19.196
lfemur -38.5105 -3.97296 -21.0829
ltibia 56.4685
lfoot -22.8574 9.42215
ltoes 8.13171
399
root 10.177 17.2749 12.8487 -15.7092 62.3982 -22.0901
lowerback 16.4766 3.98964 -8.6393
upperback 6.72343 4.11649 -3.43227
thorax -2.31343 2.09187 0.464876
lowerneck 0.203321 -20.9187 -15.3653
upperneck 5.07171 -31.5582 30.0029
head 9.2352 -15.0419 7.95302
rclavicle -9.54166e-015 3.18055e-014
rhumerus -12.5968 -15.4812 -41.9153
rradius 13.9914
rwrist 36.0265
rhand 32.4237 9.92187
rfingers 7.12502
rthumb 55.8718 -7.56687
lclavicle -9.54166e-015 3.18055e-014
lhumerus -51.0425 14.5365 38.4162
lradius 47.7045
lwrist -1.76781
lhand -11.1585 20.333
lfingers 7.12502
lthumb 14.8678 49.7795
rfemur -25.0525 -23.0137 12.1931
rtibia 61.4287
rfoot -5.50194 12.7823
rtoes -20.4993
lfemur -38.2217 -3.8464 -20.0374
ltibia 57.0926
lfoot -23.203 9.19457
ltoes 6.95371
400
root 10.163 17.2846 12.9748 -25.725 60.9554 -31.5858
lowerback 17.9177 3.69429 -3.99672
upperback 7.19606 4.41318 -2.056
thorax -2.41123 2.28473 -0.788122
lowerneck 0.622694 -20.9008 -15.7055
upperneck 4.31357 -31.4321 30.3199
head 9.00658 -15.0767 8.16457
rclavicle -9.22361e-014 5.40694e-014
rhumerus -12.0871 -17.6821 -42.4147
rradius 14.3166
rwrist 38.1983
rhand 30.5635 7.27757
rfingers 7.12502
rthumb 54.2129 -11.4155
lclavicle -9.22361e-014 5.40694e-014
lhumerus -50.1541 15.1526 37.3874
lradius 47.6475
lwrist -1.94426
lhand -11.668 21.4936
lfingers 7.12502
lthumb 14.3769 50.9757
rfemur -22.6614 -22.9983 16.1549
rtibia 61.0733
rfoot -6.39359 13.4153
rtoes -23.7621
lfemur -36.7114 -3.05096 -14.6297
ltibia 57.8783
lfoot -23.7165 8.31827
ltoes 6.52502
401
root 10.1503 17.2838 13.0946 -26.0551 60.7692 -31.7003
lowerback 18.016 3.87773 -4.05735
upperback 7.25132 4.64683 -1.88908
thorax -2.42533 2.3975 -0.63061
lowerneck 0.866016 -20.9007 -16.0666
upperneck 4.02919 -31.3723 30.2575
head 8.90154 -15.1007 8.22294
rclavicle 5.88403e-014 -1.59028e-014
rhumerus -11.4098 -19.3874 -43.1587
rradius 14.5558
rwrist 41.1647
rhand 28.3908 7.02624
rfingers 7.12502
rthumb 52.2546 -12.927
lclavicle 5.88403e-014 -1.59028e-014
lhumerus -49.2068 16.3638 36.2172
lradius 47.3087
lwrist -2.24381
lhand -11.0946 22.1099
lfingers 7.12502
lthumb 14.9293 51.5518
rfemur -22.4406 -22.9513 15.6276
rtibia 60.9316
rfoot -6.69784 12.6952
rtoes -23.8217
lfemur -36.4741 -2.61154 -14.0425
ltibia 58.3409
lfoot -24.7161 6.82487
ltoes 13.9255
